<?xml version="1.0" standalone="no"?>
<!DOCTYPE svg PUBLIC "-//W3C//DTD SVG 20010904//EN"
 "http://www.w3.org/TR/2001/REC-SVG-20010904/DTD/svg10.dtd">
<svg version="1.0" xmlns="http://www.w3.org/2000/svg"
 width="108.000000pt" height="110.000000pt" viewBox="0 0 108.000000 110.000000"
 preserveAspectRatio="xMidYMid meet">
<metadata>
Created by potrace 1.16, written by Peter Selinger 2001-2019
</metadata>
<g transform="translate(0.000000,110.000000) scale(0.100000,-0.100000)"
fill="#000000" stroke="none">
<path d="M50 1055 c0 -12 13 -15 60 -15 l60 0 -2 -492 -3 -493 -57 -3 c-32 -2
-58 -7 -58 -12 0 -6 104 -10 263 -10 204 0 276 3 322 15 175 46 317 186 369
364 22 74 20 200 -3 283 -48 175 -194 316 -376 363 -87 22 -575 22 -575 0z
m435 -30 c168 -44 304 -182 350 -356 78 -292 -142 -594 -445 -611 l-65 -3 -3
493 -2 492 53 0 c29 0 79 -7 112 -15z"/>
<path d="M558 754 c-3 -5 -13 -41 -23 -81 l-19 -72 -89 -3 -90 -3 71 -48 c40
-26 72 -49 72 -51 0 -3 -13 -40 -30 -82 -16 -43 -28 -79 -26 -82 3 -2 35 21
72 52 l67 55 59 -46 c33 -26 61 -51 64 -55 3 -4 9 -8 14 -8 5 0 -3 30 -17 68
-41 107 -42 101 39 152 l73 45 -91 3 -91 3 -18 67 c-20 76 -30 99 -37 86z"/>
</g>
</svg>
